<svg width="66" height="66" viewBox="0 0 66 66" fill="none" xmlns="http://www.w3.org/2000/svg">
<path d="M38.5 41.25L27.5 52.25L38.5 63.25" stroke="#33363F" stroke-width="7"/>
<path d="M49.671 23.375C51.3605 26.3014 52.25 29.6209 52.25 33C52.25 36.3791 51.3605 39.6986 49.671 42.625C47.9814 45.5514 45.5514 47.9814 42.625 49.671C39.6986 51.3605 36.3791 52.25 33 52.25" stroke="#33363F" stroke-width="7" stroke-linecap="round"/>
<path d="M27.5 24.75L38.5 13.75L27.5 2.75" stroke="#33363F" stroke-width="7"/>
<path d="M16.329 42.625C14.6395 39.6986 13.75 36.3791 13.75 33C13.75 29.6209 14.6395 26.3014 16.329 23.375C18.0186 20.4486 20.4486 18.0186 23.375 16.329C26.3014 14.6395 29.6209 13.75 33 13.75" stroke="#33363F" stroke-width="7" stroke-linecap="round"/>
</svg>
